<svg width="512" height="512" viewBox="0 0 512 512" fill="none" xmlns="http://www.w3.org/2000/svg">
<g clip-path="url(#clip0_27_8)">
<path d="M442.809 118.118C423.733 88.2442 382.715 75.8348 327.446 82.9587C325.492 83.1862 323.424 83.5332 321.471 83.7607C320.668 81.9257 319.864 80.085 318.944 78.25C295.161 27.8049 262.642 0 227.253 0C191.863 0 159.231 27.8061 135.56 78.25C134.756 80.085 133.837 81.9257 133.033 83.7607C130.964 83.4206 129.011 83.1862 127.059 82.9575C71.6777 75.7188 30.7717 88.2453 11.6958 118.12C-7.37552 147.994 -1.51786 190.39 28.1267 237.5C32.1169 243.843 36.3727 250.016 40.883 256.001C36.2869 262.203 32.0368 268.294 28.1278 274.497C-1.51786 321.606 -7.37552 364.12 11.6958 393.883C27.2075 418.241 57.315 430.996 97.8717 430.996C107.592 430.943 117.302 430.291 126.942 429.039C128.895 428.81 130.963 428.464 132.917 428.236C133.724 430.077 134.528 431.913 135.448 433.752C159.232 484.192 191.75 512.002 227.136 512.002C262.525 512.002 295.161 484.192 318.827 433.752C319.631 431.911 320.55 430.075 321.355 428.237C323.423 428.582 325.376 428.811 327.333 429.039C336.967 430.344 346.678 430.998 356.4 430.997C396.96 430.997 427.064 418.241 442.576 393.883C461.65 364.008 455.789 321.606 426.148 274.497C422.157 268.156 417.901 261.985 413.392 256.001C417.988 249.793 422.239 243.707 426.148 237.5C456.135 190.279 461.997 147.876 442.809 118.118ZM156.36 88.0166C175.776 46.6522 201.629 22.9802 227.252 22.9802C252.875 22.9802 278.729 46.6522 298.146 88.0166C298.159 88.1032 298.2 88.1832 298.262 88.2453C273.857 94.1157 250.046 102.231 227.136 112.486C204.246 102.179 180.433 94.0624 156.013 88.2453C156.243 88.2453 156.243 88.1281 156.359 88.0155L156.36 88.0166ZM330.78 256.001C330.785 274.385 329.788 292.76 327.79 311.037C313.469 322.593 298.508 333.335 282.979 343.209C265.058 354.718 246.403 365.044 227.136 374.121C207.905 364.973 189.257 354.65 171.296 343.209C155.785 333.308 140.825 322.568 126.484 311.037C122.499 274.453 122.499 237.545 126.484 200.961C157.455 176.073 191.236 154.902 227.137 137.881C246.369 147.025 265.019 157.347 282.98 168.788C298.491 178.689 313.451 189.429 327.791 200.96C329.788 219.239 330.786 237.613 330.781 256.001H330.78ZM352.724 222.563C363.976 233.043 374.568 244.21 384.438 256.001C374.566 267.789 363.975 278.955 352.724 289.434C353.414 278.407 353.76 267.263 353.76 256.001C353.76 244.74 353.416 233.595 352.724 222.563ZM323.078 343.672C319.451 363.566 314.186 383.127 307.337 402.154C289.491 398.124 271.977 392.746 254.945 386.068C268.771 378.8 282.301 370.981 295.502 362.631C304.927 356.54 314.119 350.22 323.078 343.672ZM199.559 386.068C182.557 392.833 165.036 398.213 147.167 402.154C140.318 383.127 135.054 363.566 131.426 343.672C140.274 350.22 149.466 356.54 159.003 362.513C172.446 371.131 186.004 378.944 199.559 386.068ZM101.78 289.434C90.5296 278.954 79.9381 267.788 70.0656 256.001C79.9369 244.211 90.5285 233.044 101.78 222.563C101.089 233.595 100.743 244.74 100.743 256.001C100.743 267.263 101.088 278.407 101.78 289.434ZM131.426 168.33C135.053 148.436 140.318 128.875 147.168 109.848C165.014 113.874 182.529 119.251 199.559 125.934C185.733 133.203 172.204 141.021 159.003 149.372C149.631 155.425 140.435 161.748 131.426 168.33ZM295.39 149.372C282.06 140.871 268.5 132.941 254.828 125.934C271.832 119.169 289.355 113.789 307.225 109.848C314.071 128.876 319.336 148.437 322.967 168.33C314.119 161.781 304.927 155.461 295.39 149.372ZM47.5484 225.206C23.1859 186.597 17.2122 152.014 31.0003 130.413C42.032 113.178 65.9326 103.868 98.2176 103.868C106.862 103.905 115.498 104.484 124.07 105.592H124.299C115.004 132.618 108.536 160.535 104.999 188.895C87.2926 203.668 70.8074 219.846 55.7041 237.271C52.8316 233.367 50.0751 229.345 47.5484 225.206ZM123.958 406.293C115.384 407.406 106.75 407.981 98.105 408.017C65.8154 408.017 41.916 398.825 30.8877 381.472C17.0996 359.871 23.0745 325.288 47.4312 286.679C49.9591 282.657 52.719 278.518 55.5915 274.497C70.6909 291.924 87.1747 308.102 104.882 322.872C108.422 351.233 114.891 379.149 124.186 406.176C124.186 406.293 124.07 406.293 123.958 406.293ZM298.146 423.986C278.729 465.35 252.876 489.022 227.252 489.022C201.628 489.022 175.776 465.35 156.359 423.986C156.345 423.899 156.305 423.818 156.243 423.756C180.649 417.886 204.459 409.77 227.369 399.512C250.257 409.822 274.071 417.939 298.49 423.756C298.262 423.756 298.262 423.868 298.146 423.986ZM406.956 286.796C431.319 325.399 437.292 359.987 423.504 381.589C409.716 403.186 375.82 412.267 330.547 406.293H330.317C339.613 379.267 346.083 351.35 349.622 322.99C367.328 308.218 383.813 292.04 398.914 274.614C401.674 278.636 404.429 282.657 406.957 286.796H406.956ZM349.505 189.013C345.969 160.652 339.501 132.735 330.206 105.709H330.435C375.704 99.8469 409.6 108.811 423.388 130.413C437.176 152.014 431.201 186.597 406.844 225.206C404.317 229.228 401.557 233.367 398.684 237.388C383.654 219.934 367.205 203.754 349.505 189.013Z" fill="url(#paint0_linear_27_8)"/>
<path d="M227.252 210.499C202.123 210.499 181.75 230.871 181.75 256C181.75 281.131 202.122 301.499 227.252 301.499C252.383 301.499 272.755 281.131 272.755 256.001C272.737 230.876 252.374 210.518 227.252 210.499ZM227.252 278.518C214.815 278.518 204.73 268.438 204.73 256.001C204.73 243.564 214.815 233.478 227.252 233.478C239.689 233.478 249.775 243.564 249.775 256.001C249.752 268.429 239.681 278.501 227.252 278.518Z" fill="url(#paint1_linear_27_8)"/>
</g>
<defs>
<linearGradient id="paint0_linear_27_8" x1="227.286" y1="-19.763" x2="227.286" y2="537.289" gradientUnits="userSpaceOnUse">
<stop stop-color="#00EFD1"/>
<stop offset="1" stop-color="#00ACEA"/>
</linearGradient>
<linearGradient id="paint1_linear_27_8" x1="227.252" y1="-19.7629" x2="227.252" y2="537.289" gradientUnits="userSpaceOnUse">
<stop stop-color="#00EFD1"/>
<stop offset="1" stop-color="#00ACEA"/>
</linearGradient>
<clipPath id="clip0_27_8">
<rect width="512" height="512" fill="white"/>
</clipPath>
</defs>
</svg>
