<svg xmlns="http://www.w3.org/2000/svg" width="74.118" height="66.237" viewBox="0 0 74.118 66.237"><g transform="translate(-160 -2162.522)"><g transform="translate(160 2199.522)"><g transform="translate(0 25.952)"><path d="M653.891,429.4a3.284,3.284,0,0,0-3.284-3.285H621.7a3.285,3.285,0,0,0,3.286,3.285Z" transform="translate(-621.697 -426.118)" fill="#fff"/></g><g transform="translate(7.556 0)"><path d="M635.49,425.159a8.541,8.541,0,1,1,8.542-8.54A8.55,8.55,0,0,1,635.49,425.159Zm0-13.8a5.256,5.256,0,1,0,5.256,5.256A5.263,5.263,0,0,0,635.49,411.362Z" transform="translate(-626.95 -408.077)" fill="#fff"/></g></g><g transform="translate(182 2162.522)"><g transform="translate(0 25.952)"><path d="M653.891,429.4a3.284,3.284,0,0,0-3.284-3.285H621.7a3.285,3.285,0,0,0,3.286,3.285Z" transform="translate(-621.697 -426.118)" fill="#fff"/></g><g transform="translate(7.556 0)"><path d="M635.49,425.159a8.541,8.541,0,1,1,8.542-8.54A8.55,8.55,0,0,1,635.49,425.159Zm0-13.8a5.256,5.256,0,1,0,5.256,5.256A5.263,5.263,0,0,0,635.49,411.362Z" transform="translate(-626.95 -408.077)" fill="#fff"/></g></g><g transform="translate(201.925 2199.522)"><g transform="translate(0 25.952)"><path d="M653.891,429.4a3.284,3.284,0,0,0-3.284-3.285H621.7a3.285,3.285,0,0,0,3.286,3.285Z" transform="translate(-621.697 -426.118)" fill="#fff"/></g><g transform="translate(7.556 0)"><path d="M635.49,425.159a8.541,8.541,0,1,1,8.542-8.54A8.55,8.55,0,0,1,635.49,425.159Zm0-13.8a5.256,5.256,0,1,0,5.256,5.256A5.263,5.263,0,0,0,635.49,411.362Z" transform="translate(-626.95 -408.077)" fill="#fff"/></g></g></g></svg>