<svg xmlns="http://www.w3.org/2000/svg" width="74.118" height="62.278" viewBox="0 0 74.118 62.278"><g transform="translate(-160 -2166.481)"><g transform="translate(160 2199.522)"><g transform="translate(0 25.952)"><path d="M653.891,429.4a3.284,3.284,0,0,0-3.284-3.285H621.7a3.285,3.285,0,0,0,3.286,3.285Z" transform="translate(-621.697 -426.118)" fill="#fff"/></g><g transform="translate(7.556 0)"><path d="M635.49,425.159a8.541,8.541,0,1,1,8.542-8.54A8.55,8.55,0,0,1,635.49,425.159Zm0-13.8a5.256,5.256,0,1,0,5.256,5.256A5.263,5.263,0,0,0,635.49,411.362Z" transform="translate(-626.95 -408.077)" fill="#fff"/></g></g><g transform="translate(201.925 2199.522)"><g transform="translate(0 25.952)"><path d="M653.891,429.4a3.284,3.284,0,0,0-3.284-3.285H621.7a3.285,3.285,0,0,0,3.286,3.285Z" transform="translate(-621.697 -426.118)" fill="#fff"/></g><g transform="translate(7.556 0)"><path d="M635.49,425.159a8.541,8.541,0,1,1,8.542-8.54A8.55,8.55,0,0,1,635.49,425.159Zm0-13.8a5.256,5.256,0,1,0,5.256,5.256A5.263,5.263,0,0,0,635.49,411.362Z" transform="translate(-626.95 -408.077)" fill="#fff"/></g></g><g transform="translate(186.351 2166.481)"><path d="M91.189,410.551,84.345,424.3H93.5l-3.7,7.427a3.474,3.474,0,0,0,1.789,4.761l6.844-13.744H89.279l3.7-7.427A3.475,3.475,0,0,0,91.189,410.551Zm3.877,5.8-2.019,4.054H102.2l-1.162,2.334-8.132,16.334a5.8,5.8,0,0,1-5.2-8.39l2.019-4.054H80.577l1.162-2.334,8.133-16.333A5.8,5.8,0,0,1,95.067,416.352Z" transform="translate(-80.577 -407.963)" fill="#fff" fill-rule="evenodd"/></g></g></svg>