<svg id="Layer_2" width="74.118" height="66.237"  xmlns="http://www.w3.org/2000/svg" viewBox="0 0 13.54 27.5"><defs><style>.cls-1{fill:#fff;}</style></defs><g id="CONTENT"><g><path class="cls-1" d="M13.54,12.3c0-.76-.62-1.38-1.38-1.38H0c0,.76,.62,1.38,1.38,1.38H13.54Z"/><path class="cls-1" d="M6.77,7.19c-1.98,0-3.59-1.61-3.59-3.59S4.79,0,6.77,0s3.59,1.61,3.59,3.59-1.61,3.59-3.59,3.59Zm0-5.8c-1.22,0-2.21,.99-2.21,2.21s.99,2.21,2.21,2.21,2.21-.99,2.21-2.21-.99-2.21-2.21-2.21Z"/><path class="cls-1" d="M0,15.2c0,.76,.62,1.38,1.38,1.38H13.54c0-.76-.62-1.38-1.38-1.38H0Z"/><path class="cls-1" d="M6.77,20.31c1.98,0,3.59,1.61,3.59,3.59s-1.61,3.59-3.59,3.59-3.59-1.61-3.59-3.59,1.61-3.59,3.59-3.59Zm0,5.8c1.22,0,2.21-.99,2.21-2.21s-.99-2.21-2.21-2.21-2.21,.99-2.21,2.21,.99,2.21,2.21,2.21Z"/></g></g></svg>