<svg xmlns="http://www.w3.org/2000/svg" xmlns:xlink="http://www.w3.org/1999/xlink" width="236" height="35" viewBox="0 0 236 35"><defs><clipPath id="a"><rect width="170.109" height="35.102" fill="#fff"/></clipPath><clipPath id="c"><rect width="236" height="35"/></clipPath></defs><g id="b" clip-path="url(#c)"><g transform="translate(3.5 -2.124)"><g transform="translate(0 2.124)" clip-path="url(#a)"><path d="M17.316,3.618v28.8H23.75V23.655a7.874,7.874,0,0,0,6.572,2.915c6.03,0,10.214-5.041,10.214-11.7V3.618Zm16.7,11.25c0,3.735-1.889,6.66-5.175,6.66-3.2,0-5.086-2.835-5.086-6.66V8.884H34.011Z" transform="translate(12.836 2.682)" fill="#fff"/><path d="M107.254,15.124c0-6.93-4.141-11.79-11.116-11.79-6.885,0-11.341,4.86-11.341,11.881,0,7.064,4.275,11.565,11.386,11.565,5.22,0,9.54-2.655,10.531-7.066h-6.345A3.957,3.957,0,0,1,96.362,22.1c-3.15,0-4.86-1.755-5.22-5.311h16.067ZM91.233,12.829c.585-2.835,2.07-4.771,4.9-4.771,2.746,0,4.275,1.891,4.635,4.771Z" transform="translate(62.857 2.471)" fill="#fff"/><path d="M82.943,26.78c-6.885,0-11.431-4.545-11.431-11.7,0-6.885,4.322-11.745,11.431-11.745,5.851,0,9.991,3.059,10.665,8.461H87.129a3.865,3.865,0,0,0-4.277-3.331c-3.2,0-4.86,2.746-4.86,6.572,0,3.644,1.576,6.66,4.9,6.66,2.386,0,3.6-1.081,4.231-3.376h6.434c-.764,5.356-4.679,8.461-10.62,8.461" transform="translate(53.009 2.471)" fill="#fff"/><path d="M69.262,3.334c-5.805,0-9.767,2.25-10.441,7.426H65.3a3.693,3.693,0,0,1,4.007-2.97c2.2,0,3.735,1.259,3.735,3.51v1.125l-6.526.676c-4.815.4-8.055,2.474-8.055,6.974,0,4.231,3.465,6.706,8.1,6.706a8.362,8.362,0,0,0,7.111-3.329v2.835h5.715V11.75c0-5.985-4.05-8.416-10.125-8.416M72.952,17.6c0,3.1-1.619,5.13-4.635,5.13-2.07,0-3.465-1.259-3.465-2.969s1.349-2.791,3.2-3.016l4.9-.63Z" transform="translate(43.335 2.471)" fill="#fff"/><path d="M66.331,8.779a9.138,9.138,0,0,0-3.6-4.05,9.432,9.432,0,0,0-5-1.4,8.1,8.1,0,0,0-7.47,4V3.829H44.5v28.8h6.39V23.855a7.968,7.968,0,0,0,6.572,2.925A9.561,9.561,0,0,0,62.5,25.385a9.992,9.992,0,0,0,3.78-4.05,13.5,13.5,0,0,0,1.4-6.255,13.442,13.442,0,0,0-1.351-6.3M59.716,19.9a4.462,4.462,0,0,1-3.69,1.846,4.751,4.751,0,0,1-3.735-1.8,7.9,7.9,0,0,1-1.4-4.86,7.939,7.939,0,0,1,1.4-4.816,4.661,4.661,0,0,1,3.735-1.85,4.46,4.46,0,0,1,3.69,1.844A7.678,7.678,0,0,1,61.2,15.081,7.5,7.5,0,0,1,59.716,19.9" transform="translate(32.989 2.471)" fill="#fff"/><path d="M42.112,26.78c-5.582,0-9.765-1.889-10.71-7.066h6.209c.495,1.8,1.98,2.746,4.364,2.746,2.07,0,3.827-.54,3.827-2.34,0-1.17-.855-1.98-2.476-2.25l-4.815-.9c-3.961-.766-6.7-2.476-6.7-6.526,0-4.59,4.32-7.11,9.673-7.11,5.49,0,9.54,2.386,10.35,7.425H45.576a3.211,3.211,0,0,0-1.3-2.25,4.476,4.476,0,0,0-2.88-.855,3.875,3.875,0,0,0-2.565.719,1.979,1.979,0,0,0-.944,1.666,1.652,1.652,0,0,0,.583,1.349,4.521,4.521,0,0,0,2.116.764l4.815.855c4.141.721,6.794,2.476,6.794,6.706,0,4.635-4.365,7.066-10.078,7.066" transform="translate(23.277 2.471)" fill="#fff"/><rect width="6.436" height="22.457" transform="translate(20.026 6.3)" fill="#fff"/><path d="M9.856,11.565v9.046c0,1.844.81,3.014,2.925,3.014.764,0,3.465-.044,3.914-.134v5.175a20.842,20.842,0,0,1-5.535.36C6.03,28.8,3.42,26.28,3.42,20.835v-9.27H0V6.3H3.42V0H9.856V6.3H16.7v5.266Z" fill="#fff"/></g></g><g transform="translate(182.5 10.02)"><path d="M10.09,8.09H8.27V9.77h1.8a.57.57,0,0,0,.58-.59V8.65a.544.544,0,0,0-.57-.56Z" fill="#fff"/><path d="M10.48,6.1V5.57a.53.53,0,0,0-.57-.48H8.28V6.67H9.9a.557.557,0,0,0,.58-.56Z" fill="#fff"/><path d="M47.3,0H2.7A2.691,2.691,0,0,0,0,2.68v9.6a2.691,2.691,0,0,0,2.7,2.68H47.3A2.691,2.691,0,0,0,50,12.28V2.68A2.691,2.691,0,0,0,47.3,0ZM12.33,9.12a2.119,2.119,0,0,1-2.27,2.1H6.61V3.65H9.86a2.046,2.046,0,0,1,2.28,1.89v.54a1.485,1.485,0,0,1-.58,1.17,1.8,1.8,0,0,1,.76,1.43v.44ZM22.64,5.15H19.39V6.8h2.82V8.29H19.39V9.73h3.25v1.49H17.72V3.65h4.92V5.14Zm10.63,0H31.24v6.07H29.58V5.14H27.53V3.65h5.75V5.14Zm9.14,6.07-.4-1.33H39.45l-.4,1.33H37.42l2.13-7.56h2.37l2.13,7.56H42.41Z" fill="#fff"/><path d="M39.88,8.39h1.7l-.85-3.01Z" fill="#fff"/></g></g></svg>