<?xml version="1.0" encoding="UTF-8"?><svg id="Layer_2" xmlns="http://www.w3.org/2000/svg" viewBox="0 0 158.33 48.12"><defs><style>.cls-1{fill:#fff;}.cls-2{fill:#cb13fd;}</style></defs><g id="Layer_1-2"><g><rect class="cls-2" width="158.33" height="48.12" rx="6.23" ry="6.23"/><path class="cls-1" d="M22.97,10.12c-.01,.15-.03,.3-.03,.44,0,4.2,0,8.4,0,12.59q0,.46-.45,.46c-4.3,0-8.6,0-12.91,0q-.45,0-.45-.46c0-4.2,0-8.4,0-12.59,0-.15-.02-.3-.03-.44,4.63,0,9.25,0,13.88,0Z"/><path class="cls-1" d="M37.75,10.12c-.01,.15-.03,.3-.03,.44,0,4.2,0,8.4,0,12.59q0,.46-.45,.46c-4.23,0-8.47,0-12.7,0q-.45,0-.45-.46c0-4.2,0-8.4,0-12.59,0-.15-.02-.3-.03-.44,4.56,0,9.11,0,13.67,0Z"/><path class="cls-1" d="M30.94,38.6c-2.17,0-4.35,0-6.52,0-.34,0-.45-.08-.45-.44,.01-4.27,.01-8.53,0-12.8,0-.35,.1-.45,.45-.44,4.36,.01,8.72,.01,13.08,0,.32,0,.44,.08,.44,.42-.01,4.28-.01,8.56,0,12.84,0,.34-.1,.43-.43,.43-2.19-.01-4.37,0-6.56,0Z"/><path class="cls-1" d="M16.04,25c2.14,0,4.28,0,6.42,0,.31,0,.42,.08,.42,.4-.01,4.22,0,8.44,0,12.66,0,.32-.1,.41-.41,.41-4.29,0-8.58,0-12.87,0-.29,0-.4-.08-.4-.39,0-4.23,0-8.47,0-12.7,0-.31,.1-.39,.4-.39,2.15,.01,4.3,0,6.45,0Z"/><g><path class="cls-1" d="M54.63,11.63c1.51,0,2.37,.75,2.37,2.03v2.41c0,1.27-.85,2.03-2.36,2.03h-2.32v-6.46h2.31Zm1.56,2.09c0-.89-.5-1.33-1.5-1.33h-1.56v4.93h1.55c1.01,0,1.51-.44,1.51-1.33v-2.27Z"/><path class="cls-1" d="M58.2,12.74v-.95h.83v.95h-.83Zm.02,5.36v-4.63h.78v4.63h-.78Z"/><path class="cls-1" d="M60.07,16.66v-.09h.77v.08c0,.54,.42,.85,1.16,.85,.59,0,1.02-.25,1.02-.66,0-.61-1.04-.72-1.83-.94-.55-.16-1-.53-1-1.16,0-.85,.69-1.4,1.75-1.4,1.13,0,1.8,.59,1.8,1.5v.09h-.77v-.09c0-.5-.37-.81-1.02-.81-.61,0-.99,.28-.99,.65,0,.57,1.03,.65,1.83,.89,.55,.17,1,.58,1,1.21,0,.45-.17,.8-.52,1.04-.35,.25-.78,.37-1.3,.37-1.17,0-1.89-.6-1.89-1.54Z"/><path class="cls-1" d="M68.76,15.3v.96c0,1.3-.61,1.95-1.82,1.95-.58,0-1.03-.17-1.35-.49v2.48h-.78v-6.74h.54l.15,.46c.32-.38,.81-.58,1.44-.58,1.21,0,1.82,.65,1.82,1.95Zm-.78,.05c0-.87-.38-1.26-1.17-1.26-.72,0-1.12,.34-1.21,1.03v1.33c.09,.69,.5,1.03,1.21,1.03,.8,0,1.17-.38,1.17-1.26v-.86Z"/><path class="cls-1" d="M69.74,16.29v-1.03c0-1.21,.7-1.92,1.97-1.92s1.98,.71,1.98,1.92v1.03c0,1.21-.7,1.93-1.97,1.93s-1.98-.71-1.98-1.93Zm3.17-.05v-.94c0-.83-.38-1.22-1.19-1.22s-1.2,.4-1.2,1.22v.94c0,.83,.38,1.23,1.19,1.23s1.2-.41,1.2-1.23Z"/><path class="cls-1" d="M78.77,15.39v2.71h-.77v-2.69c0-.88-.39-1.32-1.15-1.32-.72,0-1.12,.34-1.21,1.03v2.98h-.78v-4.63h.52l.14,.5c.34-.41,.83-.62,1.49-.62,1.17,0,1.76,.68,1.76,2.04Z"/><path class="cls-1" d="M80.09,18.1v-4.63h.78v4.63h-.78Zm1.82-6.66l-1.05,1.5h-.75l.92-1.5h.89Z"/><path class="cls-1" d="M84.95,13.46h.8l-1.52,4.63h-1.03l-1.52-4.63h.8l1.26,3.83,1.22-3.83Z"/><path class="cls-1" d="M90.18,15.08v.94h-3.1v.21c0,.87,.4,1.31,1.2,1.31,.69,0,1.1-.31,1.1-.87v-.05h.78c0,1.02-.72,1.6-1.86,1.6-1.29,0-1.99-.77-1.99-1.99v-.9c0-1.21,.7-1.97,1.94-1.97,1.17,0,1.93,.7,1.93,1.73Zm-3.1,.28h2.31v-.27c0-.72-.37-1.07-1.11-1.07-.8,0-1.2,.43-1.2,1.3v.04Z"/><path class="cls-1" d="M91.35,11.03h.78v7.06h-.78v-7.06Z"/><path class="cls-1" d="M99.64,15.3v.96c0,1.3-.61,1.95-1.82,1.95-.58,0-1.03-.17-1.35-.49v2.48h-.78v-6.74h.54l.15,.46c.32-.38,.81-.58,1.44-.58,1.21,0,1.82,.65,1.82,1.95Zm-.78,.05c0-.87-.38-1.26-1.17-1.26-.72,0-1.12,.34-1.21,1.03v1.33c.09,.69,.5,1.03,1.21,1.03,.8,0,1.17-.38,1.17-1.26v-.86Z"/><path class="cls-1" d="M104.03,13.46h.54v4.63h-.54l-.15-.47c-.33,.39-.82,.59-1.45,.59-1.2,0-1.81-.65-1.81-1.95v-.96c0-1.3,.61-1.95,1.81-1.95,.63,0,1.12,.19,1.45,.59l.15-.47Zm-.24,2.89v-1.16c-.06-.74-.47-1.11-1.22-1.11-.8,0-1.16,.39-1.16,1.26v.86c0,.87,.38,1.26,1.16,1.26s1.16-.38,1.22-1.12Z"/><path class="cls-1" d="M108.3,13.39v.71c-.14-.03-.28-.05-.39-.05-.71,0-1.22,.39-1.22,1.12v2.92h-.78v-4.63h.54l.16,.48c.34-.38,.82-.56,1.43-.56,.12,0,.2,0,.27,0Z"/><path class="cls-1" d="M112.31,13.46h.54v4.63h-.54l-.15-.47c-.33,.39-.82,.59-1.45,.59-1.2,0-1.81-.65-1.81-1.95v-.96c0-1.3,.61-1.95,1.81-1.95,.63,0,1.12,.19,1.45,.59l.15-.47Zm-.24,2.89v-1.16c-.06-.74-.47-1.11-1.22-1.11-.8,0-1.16,.39-1.16,1.26v.86c0,.87,.38,1.26,1.16,1.26s1.16-.38,1.22-1.12Z"/><path class="cls-1" d="M68.16,22.38h2.75l-3.58,15.07h-3.5l-2.37-10-2.41,10h-3.5l-3.58-15.07h2.77l2.69,12.28,2.77-12.28h2.39l2.9,12.26,2.66-12.26Z"/><path class="cls-1" d="M72.62,25.26v-2.71h2.6v2.71h-2.6Zm.04,12.21v-10.83h2.54v10.83h-2.54Z"/><path class="cls-1" d="M87.37,31.19v6.29h-2.54v-6.31c0-1.62-.81-2.45-2.15-2.45-1.26,0-2.2,.77-2.26,2.13v6.63h-2.52v-10.83h1.64l.47,.94c.81-.83,1.9-1.24,3.26-1.24,2.58,0,4.09,1.53,4.09,4.84Z"/><path class="cls-1" d="M96.6,21.06h2.54v16.41h-1.71l-.43-.85c-.77,.77-1.83,1.15-3.2,1.15-2.83,0-4.26-1.51-4.26-4.56v-2.3c0-3.05,1.43-4.56,4.26-4.56,1.13,0,2.07,.28,2.79,.81v-6.1Zm0,12.45v-2.9c-.17-1.26-.94-1.9-2.28-1.9-1.49,0-2.24,.77-2.24,2.32v2.07c0,1.54,.75,2.3,2.24,2.3,1.34,0,2.11-.64,2.28-1.9Z"/><path class="cls-1" d="M106.22,37.77c-1.51,0-2.71-.41-3.54-1.24-.83-.81-1.26-1.94-1.26-3.37v-2.22c0-2.88,1.73-4.6,4.77-4.6s4.8,1.73,4.8,4.6v2.22c0,1.43-.41,2.56-1.24,3.37-.83,.83-2.02,1.24-3.54,1.24Zm2.24-4.69v-2.05c0-1.56-.75-2.34-2.24-2.34s-2.26,.79-2.26,2.34v2.05c0,1.56,.75,2.34,2.24,2.34s2.26-.79,2.26-2.34Z"/><path class="cls-1" d="M123.74,26.65h2.58l-2.64,10.83h-2.62l-1.85-5.9-1.88,5.9h-2.62l-2.64-10.83h2.58l1.62,8.19,1.92-8.19h2l1.94,8.19,1.62-8.19Z"/><path class="cls-1" d="M127.14,34.13v-.23h2.52v.23c0,.87,.83,1.43,2.05,1.43,1.04,0,1.77-.43,1.77-1.11,0-1.09-2.2-1.28-3.96-1.85-1.22-.38-2.17-1.3-2.17-2.75,0-2.11,1.68-3.5,4.22-3.5s4.26,1.43,4.26,3.54v.21h-2.52v-.21c0-.79-.66-1.32-1.75-1.32s-1.73,.49-1.73,1.11c0,.98,2.24,1.17,3.99,1.75,1.19,.41,2.17,1.39,2.17,2.86,0,1.13-.43,1.98-1.26,2.58-.85,.62-1.9,.92-3.16,.92-2.71,0-4.43-1.45-4.43-3.65Z"/></g></g></g></svg>