<svg width="162" height="64" viewBox="0 0 162 64" fill="none" xmlns="http://www.w3.org/2000/svg">
<path d="M110.621 62.4605C125.846 62.4605 138.189 50.2832 138.189 35.2605C138.189 20.2378 125.847 8.06054 110.621 8.06054C95.3936 8.06054 83.0504 20.2378 83.0504 35.2605C83.0504 50.2832 95.3936 62.4605 110.621 62.4605V62.4605Z" fill="url(#paint0_linear_6_28)"/>
<path d="M69.0927 21.4919C74.9215 21.4919 79.646 16.6815 79.646 10.7451C79.646 4.81211 74.9198 0 69.0927 0C63.2655 0 58.5428 4.81038 58.5428 10.7451C58.5428 16.6815 63.2655 21.4919 69.0927 21.4919Z" fill="url(#paint1_linear_6_28)"/>
<path d="M149.766 62.4467C155.781 62.4467 160.658 57.7851 160.658 52.0355C160.658 46.2858 155.781 41.6259 149.766 41.6259C143.75 41.6259 138.874 46.2858 138.874 52.0355C138.874 57.7851 143.75 62.4467 149.766 62.4467Z" fill="#F34C5D"/>
<path d="M55.1385 0.669407C48.0912 0.669407 42.0257 4.69276 39.1279 10.5514C35.4987 8.88594 31.5428 8.02793 27.5403 8.03806C12.3309 8.03806 0 20.2223 0 35.2484C0 50.2746 12.3309 62.4588 27.5403 62.4588C42.7497 62.4588 55.0806 50.2746 55.0806 35.2484L55.1385 0.671137V0.669407Z" fill="url(#paint2_linear_6_28)"/>
<path d="M69.0155 21.4919C66.2383 21.4928 63.5751 22.5818 61.6112 24.5195C59.6474 26.4572 58.5438 29.085 58.5428 31.8253V63.1334C70.2023 63.1334 79.6442 53.8171 79.6442 42.3126V31.9792C79.641 29.1988 78.5201 26.5332 76.5276 24.5671C74.535 22.601 71.8334 21.4951 69.0155 21.4919V21.4919Z" fill="url(#paint3_linear_6_28)"/>
<defs>
<linearGradient id="paint0_linear_6_28" x1="83.0364" y1="35.2623" x2="138.191" y2="35.2623" gradientUnits="userSpaceOnUse">
<stop stop-color="#6948D0"/>
<stop offset="1" stop-color="#DF4D68"/>
</linearGradient>
<linearGradient id="paint1_linear_6_28" x1="58.5428" y1="10.752" x2="79.6372" y2="10.752" gradientUnits="userSpaceOnUse">
<stop stop-color="#4E67DE"/>
<stop offset="1" stop-color="#6948D0"/>
</linearGradient>
<linearGradient id="paint2_linear_6_28" x1="-0.0140243" y1="31.5676" x2="55.1402" y2="31.5676" gradientUnits="userSpaceOnUse">
<stop stop-color="#18B0F4"/>
<stop offset="1" stop-color="#4E67DE"/>
</linearGradient>
<linearGradient id="paint3_linear_6_28" x1="58.5341" y1="42.3178" x2="79.6355" y2="42.3178" gradientUnits="userSpaceOnUse">
<stop stop-color="#4E67DE"/>
<stop offset="1" stop-color="#6948D0"/>
</linearGradient>
</defs>
</svg>
